<svg width="113" height="181" viewBox="0 0 113 181" fill="none" xmlns="http://www.w3.org/2000/svg">
<g clip-path="url(#clip0_239_9750)">
<path opacity="0.95" d="M101.383 6.20898H11.6147C8.66696 6.20898 6.27734 8.57366 6.27734 11.4906V166.587C6.27734 169.504 8.66696 171.869 11.6147 171.869H101.383C104.331 171.869 106.72 169.504 106.72 166.587V11.4906C106.72 8.57366 104.331 6.20898 101.383 6.20898Z" stroke="#231800" stroke-width="0.142752" stroke-miterlimit="10"/>
<path opacity="0.95" d="M100.954 7.25342H12.0567C9.44732 7.25342 7.33203 9.34663 7.33203 11.9287V166.149C7.33203 168.731 9.44732 170.824 12.0567 170.824H100.954C103.563 170.824 105.678 168.731 105.678 166.149V11.9287C105.678 9.34663 103.563 7.25342 100.954 7.25342Z" stroke="#231800" stroke-width="0.136545" stroke-miterlimit="10"/>
<path opacity="0.95" d="M100.506 8.29834H12.5021C10.2271 8.29834 8.38281 10.1234 8.38281 12.3746V165.704C8.38281 167.955 10.2271 169.78 12.5021 169.78H100.506C102.781 169.78 104.625 167.955 104.625 165.704V12.3746C104.625 10.1234 102.781 8.29834 100.506 8.29834Z" stroke="#231800" stroke-width="0.136545" stroke-miterlimit="10"/>
<path opacity="0.95" d="M100.069 9.34277H12.9363C10.9996 9.34277 9.42969 10.8963 9.42969 12.8127V165.272C9.42969 167.189 10.9996 168.742 12.9363 168.742H100.069C102.005 168.742 103.575 167.189 103.575 165.272V12.8127C103.575 10.8963 102.005 9.34277 100.069 9.34277Z" stroke="#231800" stroke-width="0.136545" stroke-miterlimit="10"/>
<path opacity="0.95" d="M99.6323 10.3877H13.3782C11.78 10.3877 10.4844 11.6698 10.4844 13.2513V164.834C10.4844 166.416 11.78 167.698 13.3782 167.698H99.6323C101.231 167.698 102.526 166.416 102.526 164.834V13.2513C102.526 11.6698 101.231 10.3877 99.6323 10.3877Z" stroke="#231800" stroke-width="0.130339" stroke-miterlimit="10"/>
<path d="M77.8444 0H103.793V180.485H77.8444V0Z" fill="#B5B5B5"/>
<path d="M106.725 0C110.195 0 113 2.82077 113 6.29305V174.184C113 177.664 110.187 180.477 106.725 180.477H103.794V0H106.725Z" fill="#F7F7F7"/>
<path opacity="0.2" d="M0.00547028 85.6299H77.8438V112.49H0.00547028V85.6299Z" fill="white"/>
<path d="M19.9258 153.335H30.1133V171.696H19.9258V153.335Z" fill="#B5B5B5"/>
<path d="M29.4718 162.516C29.4718 158.792 27.7296 155.475 25.0277 153.336C27.0062 151.774 29.5088 150.841 32.2254 150.841C38.6553 150.841 43.8672 156.068 43.8672 162.516C43.8672 168.965 38.6553 174.192 32.2254 174.192C29.5088 174.192 27.0136 173.259 25.0277 171.697C27.737 169.557 29.4718 166.24 29.4718 162.516Z" fill="#B5B5B5"/>
<path d="M6.18789 162.516C6.18789 168.965 11.3997 174.192 17.8297 174.192C20.5463 174.192 23.0415 173.259 25.0273 171.697C22.3181 169.557 20.5832 166.24 20.5832 162.516C20.5832 158.792 22.3254 155.475 25.0273 153.336C23.0489 151.774 20.5463 150.841 17.8297 150.841C11.3997 150.841 6.18789 156.068 6.18789 162.516Z" fill="#B5B5B5"/>
<path d="M28.5903 22.9078H27.3205C27.291 23.3964 26.8481 23.737 26.2944 23.737C25.6448 23.737 25.1871 23.278 25.1871 22.6191C25.1871 21.9601 25.6595 21.4863 26.3239 21.4863C26.789 21.4863 27.1212 21.664 27.3058 22.012H28.4869L28.1474 18.3916H24.2864V19.4651H27.0769L27.2467 21.0569H27.195C26.9662 20.7459 26.4863 20.5238 25.9327 20.5238C24.7811 20.5238 23.9321 21.3901 23.9321 22.5968C23.9321 23.8703 24.8918 24.7809 26.3018 24.7809C27.6158 24.7809 28.5681 24.0035 28.5977 22.9226L28.5903 22.9078Z" fill="#B5B5B5"/>
<path d="M23.582 22.9073H22.268C22.2458 23.3737 21.7881 23.6847 21.1902 23.6847C20.5922 23.6847 20.1198 23.3367 20.1198 22.8332C20.1198 22.3224 20.5701 21.9596 21.3083 21.9596H21.8915V20.9898H21.3083C20.6882 20.9898 20.26 20.6492 20.26 20.1531C20.26 19.6719 20.6218 19.3462 21.1828 19.3462C21.7439 19.3462 22.1942 19.6571 22.2089 20.1383H23.4565C23.4344 19.0574 22.4673 18.3022 21.1754 18.3022C19.8835 18.3022 18.9977 19.0796 19.005 20.0717C19.005 20.7824 19.4849 21.2785 20.1936 21.4044V21.4562C19.2708 21.5672 18.7614 22.1299 18.7688 22.9221C18.7688 23.9956 19.7802 24.773 21.1902 24.773C22.6002 24.773 23.5599 24.0104 23.582 22.9147V22.9073Z" fill="#B5B5B5"/>
<path d="M18.4258 21.671C18.4258 19.5535 17.4144 18.2949 15.842 18.2949C14.5796 18.2949 13.7159 19.0945 13.5904 20.131H14.8749C14.9857 19.6942 15.34 19.4203 15.8494 19.4203C16.7057 19.4203 17.1487 20.1902 17.156 21.4266H17.097C16.8091 20.8714 16.189 20.5382 15.4876 20.5382C14.3582 20.5382 13.5166 21.3896 13.524 22.5668C13.524 23.8476 14.4763 24.7657 15.8937 24.7583C17.193 24.7583 18.4258 23.9809 18.4258 21.671ZM15.901 23.7292C15.2588 23.7292 14.7863 23.2405 14.7863 22.6038C14.7863 21.9671 15.2514 21.4859 15.8863 21.4859C16.5212 21.4859 17.0084 21.9893 17.0158 22.6038C17.0158 23.2183 16.5433 23.7218 15.901 23.7218V23.7292Z" fill="#B5B5B5"/>
<path d="M13.0825 22.9078H11.8127C11.7832 23.3964 11.3403 23.737 10.7866 23.737C10.137 23.737 9.67926 23.278 9.67926 22.6191C9.67926 21.9601 10.1517 21.4863 10.8161 21.4863C11.2812 21.4863 11.6134 21.664 11.798 22.012H12.9791L12.6395 18.3916H8.77862V19.4651H11.5691L11.7389 21.0569H11.6872C11.4584 20.7459 10.9859 20.5238 10.4249 20.5238C9.27324 20.5238 8.42429 21.3901 8.42429 22.5968C8.42429 23.8703 9.38397 24.7809 10.794 24.7809C12.108 24.7809 13.0603 24.0035 13.0898 22.9226L13.0825 22.9078Z" fill="#B5B5B5"/>
<path d="M25.0993 35.7819H26.3986V30.7327H26.4355L27.875 31.6359V30.4735L26.3247 29.4814H25.0993V35.7745V35.7819Z" fill="#B5B5B5"/>
<path d="M23.6445 32.6427C23.6445 30.5771 22.6922 29.3999 21.1198 29.3999C19.5474 29.3999 18.5951 30.5845 18.6025 32.6427C18.6025 34.7157 19.5548 35.9151 21.1198 35.9151C22.6922 35.9151 23.6445 34.7083 23.6445 32.6427ZM21.1198 34.8341C20.3963 34.8341 19.9313 34.1012 19.9313 32.6427C19.9313 31.2064 20.3963 30.4808 21.1198 30.4808C21.8433 30.4808 22.3083 31.2064 22.3083 32.6427C22.3083 34.1012 21.8433 34.8341 21.1198 34.8341Z" fill="#B5B5B5"/>
<path d="M17.7109 32.6427C17.7109 30.5771 16.7586 29.3999 15.1862 29.3999C13.6138 29.3999 12.6615 30.5845 12.6689 32.6427C12.6689 34.7157 13.6212 35.9151 15.1862 35.9151C16.7586 35.9151 17.7109 34.7083 17.7109 32.6427ZM15.1862 34.8341C14.4627 34.8341 13.9977 34.1012 13.9977 32.6427C13.9977 31.2064 14.4627 30.4808 15.1862 30.4808C15.9097 30.4808 16.3748 31.2064 16.3748 32.6427C16.3748 34.1012 15.9097 34.8341 15.1862 34.8341Z" fill="#B5B5B5"/>
<path d="M8.9938 35.7819H10.2931V30.7327H10.33L11.7695 31.6359V30.4735L10.2193 29.4814H8.9938V35.7745V35.7819Z" fill="#B5B5B5"/>
<path d="M28.5855 45.9402L26.3339 43.8598C25.7507 43.2971 25.4333 42.9491 25.4333 42.4457C25.4333 41.8904 25.8614 41.5424 26.4299 41.5424C26.9983 41.5424 27.4043 41.9126 27.4043 42.5197H28.6445C28.6445 41.2907 27.7439 40.4985 26.4225 40.4985C25.1011 40.4985 24.1857 41.2685 24.1783 42.3568C24.1783 43.075 24.5252 43.6599 25.8245 44.837L26.7768 45.7625V45.8069H24.0897V46.8804H28.5855V45.9402Z" fill="#B5B5B5"/>
<path d="M23.707 45.1177H22.393C22.3708 45.5842 21.9132 45.8951 21.3152 45.8951C20.7172 45.8951 20.2448 45.5471 20.2448 45.0437C20.2448 44.5328 20.6951 44.1701 21.4333 44.1701H22.0165V43.2002H21.4333C20.8132 43.2002 20.385 42.8596 20.385 42.3636C20.385 41.8824 20.7468 41.5566 21.3078 41.5566C21.8689 41.5566 22.3192 41.8676 22.3339 42.3488H23.5815C23.5594 41.2679 22.5923 40.5127 21.3004 40.5127C20.0085 40.5127 19.1227 41.2901 19.1301 42.2822C19.1301 42.9929 19.6099 43.4889 20.3186 43.6148V43.6666C19.3958 43.7777 18.8864 44.3404 18.8938 45.1325C18.8938 46.2061 19.9052 46.9834 21.3152 46.9834C22.7252 46.9834 23.6849 46.2209 23.707 45.1251V45.1177Z" fill="#B5B5B5"/>
<path d="M18.5547 44.7403L15.9044 40.5942H14.2656V44.7254H13.4683V45.7768H14.2656V46.8947H15.5058V45.7768H18.5547V44.7477V44.7403ZM15.491 44.7254V42.0305H15.5501L17.248 44.681V44.7328H15.4984L15.491 44.7254Z" fill="#B5B5B5"/>
<path d="M13.0825 45.1187H11.8127C11.7832 45.6074 11.3403 45.9479 10.7866 45.9479C10.137 45.9479 9.67926 45.4889 9.67926 44.83C9.67926 44.1711 10.1517 43.6972 10.8161 43.6972C11.2812 43.6972 11.6134 43.8749 11.798 44.2229H12.9791L12.6395 40.6025H8.77862V41.6761H11.5691L11.7389 43.2678H11.6872C11.4584 42.9569 10.9859 42.7348 10.4249 42.7348C9.27324 42.7348 8.42429 43.601 8.42429 44.8078C8.42429 46.0812 9.38397 46.9918 10.794 46.9918C12.108 46.9918 13.0603 46.2145 13.0898 45.1335L13.0825 45.1187Z" fill="#B5B5B5"/>
<path d="M28.2969 54.9869C28.2969 52.8694 27.2855 51.6108 25.7131 51.6108C24.4507 51.6108 23.587 52.4104 23.4615 53.4469H24.746C24.8568 53.0101 25.2111 52.7362 25.7205 52.7362C26.5768 52.7362 27.0197 53.5062 27.0271 54.7426H26.9681C26.6802 54.1873 26.06 53.8541 25.3587 53.8541C24.2293 53.8541 23.3877 54.7055 23.3951 55.8827C23.3951 57.1635 24.3474 58.0816 25.7648 58.0742C27.064 58.0742 28.2969 57.2968 28.2969 54.9869ZM25.7722 57.0451C25.1299 57.0451 24.6574 56.5564 24.6574 55.9197C24.6574 55.283 25.1225 54.8018 25.7574 54.8018C26.3923 54.8018 26.8795 55.3052 26.8869 55.9197C26.8869 56.5342 26.4144 57.0377 25.7722 57.0377V57.0451Z" fill="#B5B5B5"/>
<path d="M20.0818 52.8103V52.7659H23.1602V51.6924H18.7382V52.7807L21.381 57.9854H22.732L20.0891 52.8103H20.0818Z" fill="#B5B5B5"/>
<path d="M18.5664 56.2973C18.5664 55.5051 17.961 54.861 17.1859 54.7426V54.6981C17.8577 54.5649 18.3301 53.9948 18.3301 53.3063C18.3301 52.329 17.3926 51.6108 16.1081 51.6108C14.8236 51.6108 13.8934 52.329 13.886 53.3063C13.886 54.0022 14.3659 54.5723 15.0303 54.6981V54.7426C14.2699 54.861 13.6498 55.5051 13.6498 56.2973C13.6498 57.319 14.6833 58.0742 16.1081 58.0742C17.5328 58.0742 18.5737 57.319 18.5664 56.2973ZM16.1081 57.1117C15.4511 57.1117 15.0081 56.7341 15.0081 56.2011C15.0081 55.668 15.4732 55.2534 16.1081 55.2534C16.7429 55.2534 17.2154 55.6532 17.208 56.2011C17.208 56.7341 16.7725 57.1117 16.1081 57.1117ZM16.1081 54.2983C15.5618 54.2983 15.1631 53.943 15.1631 53.4469C15.1631 52.9509 15.5544 52.6103 16.1081 52.6103C16.6617 52.6103 17.0604 52.9509 17.0604 53.4469C17.0604 53.943 16.6617 54.2983 16.1081 54.2983Z" fill="#B5B5B5"/>
<path d="M8.41852 54.676C8.41852 56.8156 9.42988 58.0742 10.9949 58.0742C12.2573 58.0742 13.1284 57.282 13.2539 56.2159H11.9694C11.8586 56.6749 11.5043 56.9489 10.9949 56.9489C10.146 56.9489 9.69565 56.1789 9.68827 54.9277H9.74731C10.0426 55.483 10.6553 55.8161 11.3493 55.8161C12.4788 55.8161 13.3129 54.9647 13.3203 53.7949C13.3203 52.5289 12.368 51.6035 10.9432 51.6109C9.64396 51.6109 8.41852 52.3883 8.41852 54.676ZM10.9506 54.8611C10.3157 54.8611 9.82853 54.3576 9.82853 53.7505C9.82853 53.1508 10.301 52.64 10.9432 52.64C11.5855 52.64 12.0653 53.1286 12.058 53.7579C12.058 54.3798 11.6003 54.8611 10.9506 54.8611Z" fill="#B5B5B5"/>
<path d="M46.5995 78.0404H47.6847V73.8426H47.7142L48.9102 74.5977V73.6353L47.6183 72.8135H46.5995V78.0404Z" fill="#B5B5B5"/>
<path d="M45.7799 77.2564L43.9122 75.5314C43.425 75.065 43.1666 74.7762 43.1592 74.3542C43.1592 73.8952 43.5136 73.6065 43.986 73.6065C44.4585 73.6065 44.7981 73.9174 44.7981 74.4209H45.8242C45.8242 73.3992 45.0712 72.7402 43.9787 72.7402C42.8861 72.7402 42.1183 73.3769 42.1183 74.2876C42.1183 74.8799 42.4063 75.3685 43.4841 76.3458L44.274 77.1158V77.1528H42.0445V78.0412H45.7799V77.2564Z" fill="#B5B5B5"/>
<path d="M41.7114 76.568H40.6188C40.604 76.953 40.2202 77.2121 39.7182 77.2121C39.2162 77.2121 38.8249 76.9233 38.8323 76.5013C38.8323 76.0719 39.2088 75.7758 39.8215 75.7758H40.3087V74.9688H39.8215C39.3048 74.9688 38.9504 74.6875 38.9504 74.2729C38.9504 73.8731 39.2531 73.5991 39.7108 73.5991C40.1685 73.5991 40.5524 73.8583 40.5671 74.258H41.608C41.5933 73.3622 40.7812 72.7329 39.7108 72.7329C38.6404 72.7329 37.9021 73.377 37.9095 74.2062C37.9095 74.7911 38.3082 75.2131 38.8988 75.3168V75.3538C38.131 75.45 37.7102 75.9165 37.7176 76.568C37.7176 77.4638 38.5592 78.1079 39.7329 78.1079C40.9067 78.1079 41.704 77.4786 41.7188 76.568H41.7114Z" fill="#B5B5B5"/>
<path d="M27.0508 75.436C27.0508 73.7258 26.2609 72.7485 24.9542 72.7485C23.6476 72.7485 22.8577 73.7332 22.8651 75.436C22.8651 77.1611 23.655 78.1606 24.9542 78.1606C26.2609 78.1606 27.0508 77.1611 27.0508 75.436ZM24.9542 77.2573C24.3489 77.2573 23.965 76.6502 23.965 75.436C23.965 74.2441 24.3489 73.637 24.9542 73.637C25.5596 73.637 25.9434 74.2367 25.9434 75.436C25.9434 76.6428 25.5596 77.2573 24.9542 77.2573Z" fill="#B5B5B5"/>
<path d="M20.2387 73.7404V73.7034H22.793V72.8149H19.1166V73.7182L21.3165 78.0419H22.4386L20.2387 73.7404Z" fill="#B5B5B5"/>
<path d="M18.2061 78.8269H19.1289L17.4458 72.5635H16.523L18.2061 78.8269Z" fill="#B5B5B5"/>
<path d="M16.4357 77.2579L14.5607 75.5329C14.0734 75.0664 13.815 74.7777 13.8077 74.3557C13.8077 73.8967 14.162 73.6079 14.6345 73.6079C15.1069 73.6079 15.4465 73.9189 15.4465 74.4223H16.4727C16.4727 73.4006 15.7197 72.7417 14.6271 72.7417C13.5345 72.7417 12.7668 73.3784 12.7668 74.2891C12.7668 74.8813 13.0547 75.37 14.1325 76.3473L14.9224 77.1172V77.1542H12.693V78.0427H16.4284V77.2579H16.4357Z" fill="#B5B5B5"/>
<path d="M12.3086 76.5686H11.2529C11.2234 76.9758 10.8543 77.2571 10.3966 77.2571C9.85769 77.2571 9.47382 76.8721 9.47382 76.3316C9.47382 75.7912 9.86508 75.3914 10.4187 75.3914C10.81 75.3914 11.0831 75.5395 11.2308 75.8282H12.2126L11.9321 72.8149H8.72084V73.7034H11.0388L11.1791 75.0212H11.1422C10.9503 74.7621 10.559 74.577 10.0939 74.577C9.14162 74.577 8.42555 75.2951 8.42555 76.2946C8.42555 77.3533 9.22282 78.1085 10.3966 78.1085C11.4892 78.1085 12.2791 77.4644 12.3012 76.5686H12.3086Z" fill="#B5B5B5"/>
<path d="M19.6367 120.989H18.6623V123.085H18.5958L16.8832 120.989H15.7094L17.4664 123.099L15.6946 125.705H16.8684L18.1677 123.758L18.6623 124.358V125.705H19.6367V120.982V120.989Z" fill="#B5B5B5"/>
<path d="M14.2794 125.713H15.2539V120.989H14.2794V125.713Z" fill="#B5B5B5"/>
<path d="M12.301 120.989L10.9944 124.188H10.9353L9.62866 120.989H8.42537V125.713H9.3703V122.625H9.41459L10.64 125.698H11.2897L12.5225 122.618H12.5594V125.72H13.5117V120.997H12.3084L12.301 120.989Z" fill="#B5B5B5"/>
<path d="M35.2969 129.874H34.3224V131.969H34.256L32.5433 129.874H31.3695L33.1265 131.984L31.3548 134.59H32.5285L33.8278 132.643L34.3224 133.242V134.59H35.2969V129.866V129.874Z" fill="#B5B5B5"/>
<path d="M31.1762 134.597L29.5521 129.874H28.2971L26.6731 134.597H27.7213L28.0757 133.509H29.781L30.1353 134.597H31.1836H31.1762ZM28.3193 132.739L28.9025 130.94H28.9394L29.5226 132.739H28.3119H28.3193Z" fill="#B5B5B5"/>
<path d="M26.1641 129.874H24.289C23.2555 129.874 22.7313 130.377 22.7313 131.088C22.7313 131.643 23.0931 131.991 23.5803 132.102V132.146C23.0488 132.169 22.5467 132.591 22.5467 133.294C22.5467 134.042 23.1078 134.597 24.1635 134.597H26.1641V129.874ZM24.4366 131.85C24.0232 131.85 23.7205 131.621 23.7205 131.243C23.7205 130.903 23.9715 130.666 24.4218 130.666H25.1896V131.85H24.4366ZM24.3628 133.79C23.8017 133.79 23.5507 133.553 23.5507 133.198C23.5507 132.798 23.8534 132.524 24.3333 132.524H25.1822V133.79H24.3554H24.3628Z" fill="#B5B5B5"/>
<path d="M22.2153 134.597L20.5912 129.874H19.3362L17.7121 134.597H18.7604L19.1147 133.509H20.82L21.1744 134.597H22.2227H22.2153ZM19.3584 132.739L19.9415 130.94H19.9785L20.5617 132.739H19.351H19.3584Z" fill="#B5B5B5"/>
<path d="M13.2836 134.597H14.1325L16.1996 131.599H16.2365V134.597H17.2109V129.874H16.3546L14.3023 132.872H14.258V129.874H13.2836V134.597Z" fill="#B5B5B5"/>
<path d="M10.3899 130.68C11.1134 130.68 11.608 131.243 11.608 132.235C11.608 133.227 11.1282 133.797 10.3752 133.797C9.70339 133.797 9.30475 133.419 9.28998 132.827H10.3087V132.087H8.34506V132.679C8.34506 133.915 9.19402 134.671 10.3752 134.671C11.6966 134.671 12.5898 133.745 12.5898 132.25C12.5898 130.754 11.6375 129.821 10.3899 129.821C9.32689 129.821 8.51484 130.473 8.38196 131.406H9.37857C9.50407 130.961 9.85842 130.688 10.3752 130.688L10.3899 130.68Z" fill="#B5B5B5"/>
<path d="M17.6294 69.0461V66.4326H16.6992C15.9167 66.4326 15.4368 66.9213 15.4368 67.7356C15.4368 68.55 15.9167 69.0461 16.7139 69.0461H17.6367H17.6294ZM16.7361 68.5797C16.2415 68.5797 15.9757 68.3205 15.9757 67.7356C15.9757 67.1508 16.2341 66.899 16.7287 66.899H17.0831V68.5797H16.7287H16.7361Z" fill="#B5B5B5"/>
<path d="M15.3485 69.0461L14.4479 66.4326H13.754L12.8533 69.0461H13.4365L13.6358 68.4464H14.5808L14.7801 69.0461H15.3633H15.3485ZM13.7687 68.017L14.0935 67.0175H14.1157L14.4405 68.017H13.7687Z" fill="#B5B5B5"/>
<path d="M12.9844 66.4326H10.8509V66.8842H11.6482V69.0461H12.1871V66.8842H12.9844V66.4326Z" fill="#B5B5B5"/>
<path d="M10.52 66.4326H8.77039V66.8842H9.98107V67.5209H8.86634V67.9726H9.98107V68.6093H8.77039V69.0609H10.5273V66.4474L10.52 66.4326Z" fill="#B5B5B5"/>
<path d="M23.1168 105.775C23.3752 105.775 23.5376 105.908 23.5376 106.086C23.5376 106.286 23.3235 106.367 23.1537 106.404L22.9544 106.456C22.6812 106.523 22.349 106.671 22.349 107.048C22.349 107.404 22.6295 107.663 23.1242 107.663C23.6188 107.663 23.8919 107.426 23.9141 107.048H23.5966C23.5745 107.278 23.3752 107.389 23.1315 107.389C22.8658 107.389 22.6665 107.256 22.6665 107.048C22.6665 106.863 22.8436 106.789 23.0651 106.73L23.3087 106.663C23.6483 106.575 23.855 106.397 23.855 106.108C23.855 105.745 23.5302 105.501 23.1094 105.501C22.6886 105.501 22.3859 105.745 22.3786 106.086H22.6886C22.7108 105.893 22.8806 105.782 23.1168 105.782V105.775Z" fill="#B5B5B5"/>
<path d="M21.706 107.625H22.0234V105.522H21.706V107.625Z" fill="#B5B5B5"/>
<path d="M20.4301 105.79C20.7844 105.79 21.0576 106.071 21.0576 106.582C21.0576 107.093 20.7918 107.374 20.4227 107.374C20.0905 107.374 19.8617 107.159 19.8617 106.826H20.3784V106.56H19.5516V106.797C19.5516 107.33 19.9133 107.663 20.4227 107.663C20.9911 107.663 21.375 107.248 21.375 106.582C21.375 105.916 20.9764 105.501 20.4375 105.501C19.9871 105.501 19.6328 105.782 19.5664 106.197H19.8912C19.9724 105.953 20.1569 105.797 20.4375 105.797L20.4301 105.79Z" fill="#B5B5B5"/>
<path d="M17.5052 107.625H17.8005L18.8635 106.085H18.8857V107.625H19.2031V105.522H18.9078L17.8448 107.062H17.8226V105.522H17.5052V107.625Z" fill="#B5B5B5"/>
<path d="M17.27 107.625L16.517 105.522H16.1479L15.3949 107.625H15.7345L15.9264 107.07H16.7458L16.9378 107.625H17.2773H17.27ZM16.015 106.803L16.325 105.907H16.3398L16.6498 106.803H16.015Z" fill="#B5B5B5"/>
<path d="M15.5039 105.522H13.8798V105.796H14.5294V107.625H14.8469V105.796H15.5039V105.522Z" fill="#B5B5B5"/>
<path d="M11.9098 105.522V106.907C11.9098 107.351 12.2419 107.662 12.7439 107.662C13.2459 107.662 13.5781 107.351 13.5781 106.907V105.522H13.2607V106.877C13.2607 107.166 13.0614 107.366 12.7439 107.366C12.4265 107.366 12.2272 107.159 12.2272 106.877V105.522H11.9098Z" fill="#B5B5B5"/>
<path d="M11.5117 105.522H10.7587C10.2715 105.522 10.0279 105.796 10.0279 106.181C10.0279 106.463 10.1534 106.677 10.4118 106.774L9.94669 107.625H10.3084L10.7366 106.833H11.1869V107.625H11.5043V105.522H11.5117ZM10.7956 106.559C10.4856 106.559 10.3601 106.418 10.3601 106.181C10.3601 105.944 10.4856 105.796 10.7956 105.796H11.1943V106.559H10.7956Z" fill="#B5B5B5"/>
<path d="M9.71094 105.522H8.38951V105.796H9.38612V106.433H8.45595V106.707H9.38612V107.351H8.37476V107.625H9.70355V105.522H9.71094Z" fill="#B5B5B5"/>
<path d="M44.2941 66.8777C44.7001 66.8777 44.9659 67.1887 44.9659 67.7365C44.9659 68.2844 44.6927 68.5954 44.2941 68.5954C43.9988 68.5954 43.7773 68.4325 43.7256 68.1511H43.1794C43.2384 68.6398 43.6444 69.0766 44.3088 69.0766C45.0101 69.0766 45.5195 68.588 45.5195 67.7365C45.5195 66.8851 44.9954 66.3965 44.3088 66.3965C43.7109 66.3965 43.2532 66.7445 43.1794 67.3441H43.7256C43.7699 67.0554 43.9914 66.8777 44.2941 66.8777Z" fill="#B5B5B5"/>
<path d="M41.7168 68.433H41.6947L41.0598 66.4341H40.4618L41.3625 69.0475H42.0564L42.957 66.4341H42.3591L41.7242 68.433H41.7168Z" fill="#B5B5B5"/>
<path d="M39.1417 66.8777C39.5478 66.8777 39.8135 67.1887 39.8135 67.7365C39.8135 68.2844 39.5404 68.5954 39.1417 68.5954C38.8464 68.5954 38.625 68.4325 38.5733 68.1511H38.027C38.0861 68.6398 38.4921 69.0766 39.1565 69.0766C39.8578 69.0766 40.3672 68.588 40.3672 67.7365C40.3672 66.8851 39.843 66.3965 39.1565 66.3965C38.5585 66.3965 38.1008 66.7445 38.027 67.3441H38.5733C38.6176 67.0554 38.8391 66.8777 39.1417 66.8777Z" fill="#B5B5B5"/>
<rect x="0.502669" y="0.502669" width="111.995" height="179.478" rx="4.52402" fill="#FFE800" fill-opacity="0.95" stroke="#FFFC06" stroke-width="1.00534"/>
<path d="M58.6703 19.7871H70.2928C71.8217 19.7871 73.0607 21.0298 73.0607 22.5631V40.396C73.0607 41.9294 71.8217 43.172 70.2928 43.172H58.6703C57.1414 43.172 55.9023 41.9294 55.9023 40.396V22.5631C55.9023 21.0298 57.1414 19.7871 58.6703 19.7871Z" fill="#888888"/>
<path d="M70.2938 20.1509H58.6713C57.3427 20.1509 56.2656 21.231 56.2656 22.5635V40.3965C56.2656 41.7289 57.3427 42.8091 58.6713 42.8091H70.2938C71.6224 42.8091 72.6994 41.7289 72.6994 40.3965V22.5635C72.6994 21.231 71.6224 20.1509 70.2938 20.1509Z" fill="#DDDDDD"/>
<mask id="mask0_239_9750" style="mask-type:alpha" maskUnits="userSpaceOnUse" x="56" y="20" width="17" height="23">
<path d="M70.4933 20.0869H58.6537C57.3003 20.0869 56.2031 21.1731 56.2031 22.5131V40.446C56.2031 41.786 57.3003 42.8722 58.6537 42.8722H70.4933C71.8467 42.8722 72.9439 41.786 72.9439 40.446V22.5131C72.9439 21.1731 71.8467 20.0869 70.4933 20.0869Z" fill="#DDDDDD"/>
</mask>
<g mask="url(#mask0_239_9750)">
<path d="M61.7344 19.937V27.5695" stroke="#888888" stroke-width="0.18276" stroke-miterlimit="10"/>
<path d="M56.1719 27.5818L56.7434 28.1437C57.1129 28.4998 57.6708 28.5507 58.0911 28.26L58.8519 27.7368C59.0331 27.6133 59.2432 27.5479 59.4533 27.5479H64.3516H69.518C69.7353 27.5479 69.9455 27.6133 70.1194 27.7368L70.8802 28.26C71.3005 28.5507 71.8584 28.4998 72.228 28.1437L72.7883 27.5818" stroke="#888888" stroke-width="0.18276" stroke-miterlimit="10"/>
<path d="M61.8789 42.8093L61.8862 35.4043" stroke="#888888" stroke-width="0.18276" stroke-miterlimit="10"/>
<path d="M69.5273 35.4333C69.7447 35.4333 69.9549 35.3679 70.1288 35.2444L70.8896 34.7212C71.3098 34.4305 71.8678 34.4813 72.2373 34.8374L72.7754 35.3771" stroke="#888888" stroke-width="0.175934" stroke-miterlimit="10"/>
<path d="M56.2031 35.3771L56.7447 34.8374C57.1143 34.4813 57.6722 34.4305 58.0925 34.7212L58.8533 35.2444C59.0344 35.3679 59.2446 35.4333 59.4547 35.4333H64.353H66.7224C67.005 35.4333 67.2369 35.6731 67.2369 35.9638V43.0582" stroke="#888888" stroke-width="0.175934" stroke-miterlimit="10"/>
<path d="M67.2266 19.937V27.5695" stroke="#888888" stroke-width="0.18276" stroke-miterlimit="10"/>
</g>
<path d="M20.7288 18.7389C21.9691 17.9171 22.7811 16.5179 22.7811 14.9187C22.7811 12.3941 20.7362 10.3433 18.2189 10.3433H10.5783C10.4306 10.3433 10.3125 10.4617 10.3125 10.6098V26.8681C10.3125 27.0161 10.4306 27.1346 10.5783 27.1346H18.2189C20.7362 27.1346 22.7811 25.0838 22.7811 22.5592C22.7811 20.96 21.9617 19.5533 20.7288 18.7389ZM16.9787 22.5592H15.5391V14.9187H16.9787V22.5592Z" fill="white"/>
</g>
<defs>
<clipPath id="clip0_239_9750">
<rect width="113" height="180.483" rx="5.02669" fill="white"/>
</clipPath>
</defs>
</svg>
