<svg width="13" height="12" viewBox="0 0 13 12" fill="none" xmlns="http://www.w3.org/2000/svg">
<path d="M8.28966 2.42167L8.91738 1.7491C9.01462 1.64491 9.18897 1.69443 9.21692 1.83419L9.70154 4.25733C9.72521 4.37573 9.62471 4.48197 9.50518 4.46489L7.08209 4.11873C6.94207 4.09873 6.88239 3.92949 6.9789 3.82608L7.56769 3.19522C7.2362 3.06895 6.87644 2.99982 6.5 2.99982C4.84315 2.99982 3.5 4.34296 3.5 5.99982C3.5 7.65667 4.84315 8.99982 6.5 8.99982C8.15685 8.99982 9.5 7.65667 9.5 5.99982C9.5 5.72367 9.72386 5.49982 10 5.49982C10.2761 5.49982 10.5 5.72367 10.5 5.99982C10.5 8.20896 8.70914 9.99982 6.5 9.99982C4.29086 9.99982 2.5 8.20896 2.5 5.99982C2.5 3.79068 4.29086 1.99982 6.5 1.99982C7.14278 1.99982 7.75093 2.15175 8.28966 2.42167Z" fill="black"/>
</svg>
