<svg width="23" height="19" viewBox="0 0 23 19" fill="none" xmlns="http://www.w3.org/2000/svg">
<path d="M16.4039 5.63843C16.8107 6.04523 16.8107 6.70477 16.4039 7.11157L14.0154 9.5L16.4039 11.8884C16.8107 12.2952 16.8107 12.9548 16.4039 13.3616C15.9971 13.7684 15.3375 13.7684 14.9307 13.3616L12.5423 10.9731L10.1539 13.3616C9.74708 13.7684 9.08753 13.7684 8.68073 13.3616C8.27394 12.9548 8.27394 12.2952 8.68073 11.8884L11.0692 9.5L8.68073 7.11157C8.27394 6.70477 8.27394 6.04523 8.68073 5.63843C9.08753 5.23163 9.74708 5.23163 10.1539 5.63843L12.5423 8.02686L14.9307 5.63843C15.3375 5.23163 15.9971 5.23163 16.4039 5.63843Z" fill="#333333"/>
<path fill-rule="evenodd" clip-rule="evenodd" d="M0.677749 7.87284C0.0683543 8.87203 0.0683548 10.128 0.677749 11.1272L4.48956 17.3772C5.05693 18.3074 6.06788 18.875 7.15752 18.875H19.8339C21.5598 18.875 22.9589 17.4759 22.9589 15.75V3.25C22.9589 1.52411 21.5598 0.125 19.8339 0.125H7.15752C6.06788 0.125 5.05693 0.692572 4.48956 1.62284L0.677749 7.87284ZM2.45639 8.95761L6.2682 2.70761C6.45732 2.39752 6.7943 2.20833 7.15752 2.20833H19.8339C20.4092 2.20833 20.8756 2.6747 20.8756 3.25V15.75C20.8756 16.3253 20.4092 16.7917 19.8339 16.7917H7.15752C6.7943 16.7917 6.45732 16.6025 6.2682 16.2924L2.45639 10.0424C2.25325 9.70932 2.25325 9.29068 2.45639 8.95761Z" fill="#333333"/>
</svg>
