<svg width="11" height="11" viewBox="0 0 11 11" fill="none" xmlns="http://www.w3.org/2000/svg">
<path d="M1.56694 0.683058C1.32286 0.438981 0.927136 0.438981 0.683058 0.683058C0.438981 0.927137 0.438981 1.32286 0.683058 1.56694L4.61612 5.5L0.683059 9.43306C0.438981 9.67714 0.438981 10.0729 0.683059 10.3169C0.927136 10.561 1.32286 10.561 1.56694 10.3169L5.5 6.38388L9.43306 10.3169C9.67714 10.561 10.0729 10.561 10.3169 10.3169C10.561 10.0729 10.561 9.67714 10.3169 9.43306L6.38388 5.5L10.3169 1.56694C10.561 1.32286 10.561 0.927137 10.3169 0.683059C10.0729 0.438981 9.67714 0.438981 9.43306 0.683059L5.5 4.61612L1.56694 0.683058Z" fill="#222222"/>
</svg>
