<svg width="23" height="21" viewBox="0 0 23 21" fill="none" xmlns="http://www.w3.org/2000/svg">
<path d="M3.49718 6.13508C4.00201 6.41044 4.62939 6.21974 4.96775 5.75478C6.43542 3.73802 8.81438 2.42708 11.4995 2.42708C14.5861 2.42708 17.2681 4.15927 18.6264 6.70457L17.1243 7.10706C16.7173 7.21612 16.6015 7.73819 16.9243 8.00909L20.4578 10.9749C20.7347 11.2073 21.1584 11.0938 21.282 10.754L22.8592 6.41881C23.0033 6.02284 22.642 5.6286 22.235 5.73766L20.6815 6.15391C19.0529 2.71907 15.5536 0.34375 11.4995 0.34375C8.02575 0.34375 4.9593 2.08775 3.128 4.74795C2.80151 5.2222 2.99171 5.85938 3.49718 6.13508Z" fill="#333333"/>
<path d="M2.31763 14.8463L0.763951 15.2626C0.356943 15.3717 -0.00435863 14.9775 0.139702 14.5815L1.7169 10.2463C1.84052 9.9065 2.26425 9.79296 2.54119 10.0254L6.07469 12.9912C6.39744 13.2621 6.28166 13.7842 5.87465 13.8932L4.37276 14.2957C5.73113 16.8408 8.41306 18.5729 11.4995 18.5729C14.288 18.5729 16.7463 17.1592 18.1966 15.0093C18.5183 14.5326 19.1385 14.3195 19.6529 14.5767C20.1679 14.8342 20.3807 15.4641 20.0714 15.9497C18.2686 18.7793 15.1033 20.6562 11.4995 20.6562C7.44556 20.6562 3.94635 18.281 2.31763 14.8463Z" fill="#333333"/>
</svg>
