<svg width="14" height="15" viewBox="0 0 14 15" fill="none" xmlns="http://www.w3.org/2000/svg">
<g clip-path="url(#clip0_1_5649)">
<path d="M7.00737 4.875C6.52029 4.875 6.125 5.27057 6.125 5.75C6.125 6.07217 5.86383 6.33333 5.54167 6.33333C5.2195 6.33333 4.95833 6.07217 4.95833 5.75C4.95833 4.6186 5.88361 3.70833 7.00737 3.70833C8.12302 3.70833 9.04167 4.61204 9.04167 5.73534C9.04167 6.27294 8.82811 6.78852 8.44797 7.16865L7.41248 8.20415C7.18467 8.43195 6.81533 8.43195 6.58752 8.20415C6.35971 7.97634 6.35971 7.60699 6.58752 7.37919L7.62301 6.3437C7.78436 6.18235 7.875 5.96352 7.875 5.73534C7.875 5.26401 7.48635 4.875 7.00737 4.875Z" fill="#AAAAAA"/>
<path d="M7.72917 9.97917C7.72917 10.3819 7.40271 10.7083 7 10.7083C6.59729 10.7083 6.27083 10.3819 6.27083 9.97917C6.27083 9.57646 6.59729 9.25 7 9.25C7.40271 9.25 7.72917 9.57646 7.72917 9.97917Z" fill="#AAAAAA"/>
<path fill-rule="evenodd" clip-rule="evenodd" d="M14 7.5C14 11.366 10.866 14.5 7 14.5C3.13401 14.5 0 11.366 0 7.5C0 3.63401 3.13401 0.5 7 0.5C10.866 0.5 14 3.63401 14 7.5ZM12.8333 7.5C12.8333 10.7217 10.2217 13.3333 7 13.3333C3.77834 13.3333 1.16667 10.7217 1.16667 7.5C1.16667 4.27834 3.77834 1.66667 7 1.66667C10.2217 1.66667 12.8333 4.27834 12.8333 7.5Z" fill="#AAAAAA"/>
</g>
<defs>
<clipPath id="clip0_1_5649">
<rect width="14" height="14" fill="white" transform="translate(0 0.5)"/>
</clipPath>
</defs>
</svg>
