<svg width="24" height="24" viewBox="0 0 24 24" fill="none" xmlns="http://www.w3.org/2000/svg">
<path d="M2 5.25C2 4.69772 2.44772 4.25 3 4.25H11.5C12.0523 4.25 12.5 4.69772 12.5 5.25C12.5 5.80228 12.0523 6.25 11.5 6.25H3C2.44772 6.25 2 5.80228 2 5.25Z" fill="black"/>
<path d="M2 12C2 11.4477 2.44772 11 3 11H4.5C5.05229 11 5.5 11.4477 5.5 12C5.5 12.5523 5.05229 13 4.5 13H3C2.44772 13 2 12.5523 2 12Z" fill="black"/>
<path d="M2 18.75C2 18.1977 2.44772 17.75 3 17.75H14C14.5523 17.75 15 18.1977 15 18.75C15 19.3023 14.5523 19.75 14 19.75H3C2.44772 19.75 2 19.3023 2 18.75Z" fill="black"/>
<path d="M16 5.25C16 4.69772 16.4477 4.25 17 4.25H21C21.5523 4.25 22 4.69772 22 5.25C22 5.80228 21.5523 6.25 21 6.25H17C16.4477 6.25 16 5.80228 16 5.25Z" fill="black"/>
<path d="M9 12C9 11.4477 9.44772 11 10 11H21C21.5523 11 22 11.4477 22 12C22 12.5523 21.5523 13 21 13H10C9.44772 13 9 12.5523 9 12Z" fill="black"/>
<path d="M18 18.75C18 18.1977 18.4477 17.75 19 17.75H21C21.5523 17.75 22 18.1977 22 18.75C22 19.3023 21.5523 19.75 21 19.75H19C18.4477 19.75 18 19.3023 18 18.75Z" fill="black"/>
<path fill-rule="evenodd" clip-rule="evenodd" d="M14.25 8.25C15.9069 8.25 17.25 6.90685 17.25 5.25C17.25 3.59315 15.9069 2.25 14.25 2.25C12.5931 2.25 11.25 3.59315 11.25 5.25C11.25 6.90685 12.5931 8.25 14.25 8.25ZM14.25 6.25C14.8023 6.25 15.25 5.80228 15.25 5.25C15.25 4.69772 14.8023 4.25 14.25 4.25C13.6977 4.25 13.25 4.69772 13.25 5.25C13.25 5.80228 13.6977 6.25 14.25 6.25Z" fill="black"/>
<path fill-rule="evenodd" clip-rule="evenodd" d="M7 15C8.65685 15 10 13.6569 10 12C10 10.3431 8.65685 9 7 9C5.34315 9 4 10.3431 4 12C4 13.6569 5.34315 15 7 15ZM7 13C7.55228 13 8 12.5523 8 12C8 11.4477 7.55228 11 7 11C6.44772 11 6 11.4477 6 12C6 12.5523 6.44772 13 7 13Z" fill="black"/>
<path fill-rule="evenodd" clip-rule="evenodd" d="M20 18.75C20 20.4069 18.6569 21.75 17 21.75C15.3431 21.75 14 20.4069 14 18.75C14 17.0931 15.3431 15.75 17 15.75C18.6569 15.75 20 17.0931 20 18.75ZM18 18.75C18 19.3023 17.5523 19.75 17 19.75C16.4477 19.75 16 19.3023 16 18.75C16 18.1977 16.4477 17.75 17 17.75C17.5523 17.75 18 18.1977 18 18.75Z" fill="black"/>
</svg>
