<svg width="50" height="50" viewBox="0 0 50 50" fill="none" xmlns="http://www.w3.org/2000/svg">
<mask id="mask0_81_8396" style="mask-type:alpha" maskUnits="userSpaceOnUse" x="0" y="0" width="50" height="50">
<rect width="50" height="50" rx="12" fill="#C4C4C4"/>
</mask>
<g mask="url(#mask0_81_8396)">
<rect width="50" height="50" fill="#1F4AC7"/>
<path d="M14.4707 20.1178H17.4625C17.918 20.1178 18.3377 20.2011 18.7187 20.3619C19.1028 20.5256 19.4332 20.7459 19.713 21.0257C19.9929 21.3056 20.2102 21.633 20.3709 22.0141C20.5317 22.3921 20.6091 22.797 20.6091 23.2286C20.6091 23.6603 20.5287 24.0681 20.3709 24.4492C20.2102 24.8332 19.9929 25.1636 19.713 25.4434C19.4332 25.7233 19.0998 25.9436 18.7128 26.1073C18.3258 26.271 17.906 26.3514 17.4506 26.3514H16.0991V28.852H14.4707V20.1118V20.1178ZM16.0991 21.6271V24.8481H17.3434C17.5816 24.8481 17.8019 24.8064 18.0013 24.723C18.2008 24.6397 18.3734 24.5236 18.5163 24.3747C18.6592 24.2259 18.7723 24.0562 18.8527 23.8597C18.9331 23.6633 18.9718 23.4549 18.9718 23.2316C18.9718 23.0083 18.9331 22.8 18.8527 22.6035C18.7723 22.407 18.6622 22.2373 18.5163 22.0944C18.3704 21.9515 18.2008 21.8384 18.0013 21.7521C17.8019 21.6658 17.5816 21.6271 17.3434 21.6271H16.0991Z" fill="white"/>
<path d="M24.3711 28.8698C23.9484 28.8698 23.5316 28.7924 23.1208 28.6346C22.71 28.4768 22.3408 28.2476 22.0134 27.9469C21.6859 27.6463 21.4239 27.2801 21.2245 26.8455C21.025 26.4108 20.9238 25.9167 20.9238 25.363C20.9238 24.8093 21.0221 24.3032 21.2185 23.8686C21.415 23.434 21.674 23.0678 21.9955 22.7671C22.32 22.4665 22.6891 22.2372 23.1089 22.0795C23.5286 21.9217 23.9573 21.8413 24.3949 21.8413C24.8563 21.8413 25.285 21.9247 25.675 22.0914C26.0649 22.2581 26.3894 22.4873 26.6454 22.7761V21.8532H28.2619V28.8579H26.6454V27.8636C26.3894 28.1761 26.062 28.4232 25.6631 28.6018C25.2641 28.7805 24.8325 28.8698 24.3711 28.8698ZM24.633 27.3843C24.9367 27.3843 25.2165 27.3307 25.4725 27.2265C25.7285 27.1223 25.9459 26.9765 26.1304 26.7889C26.315 26.6014 26.4609 26.3841 26.568 26.137C26.6752 25.8899 26.7288 25.6249 26.7288 25.3392C26.7288 25.0534 26.6752 24.8003 26.568 24.5533C26.4609 24.3062 26.315 24.0889 26.1304 23.9073C25.9459 23.7227 25.7285 23.5798 25.4725 23.4756C25.2165 23.3714 24.9367 23.3179 24.633 23.3179C24.3294 23.3179 24.0615 23.3714 23.7995 23.4756C23.5405 23.5798 23.3143 23.7227 23.1238 23.9013C22.9332 24.0799 22.7814 24.2943 22.6742 24.5414C22.5671 24.7884 22.5135 25.0564 22.5135 25.3392C22.5135 25.622 22.5671 25.8929 22.6742 26.1429C22.7814 26.393 22.9303 26.6103 23.1238 26.7949C23.3143 26.9794 23.5405 27.1223 23.7995 27.2265C24.0585 27.3307 24.3354 27.3843 24.633 27.3843Z" fill="white"/>
<path d="M31.6618 28.5545L28.7891 21.8535H30.5127L32.4626 26.6433L34.3053 21.8535H36.0051L31.8285 32.0762H30.1882L31.6618 28.5515V28.5545Z" fill="white"/>
<rect width="50" height="50" fill="#1D49C2"/>
<path d="M16.5164 15.9854H33.4822C35.2407 15.9854 36.6665 17.4112 36.6665 19.1631V30.837C36.6665 32.5889 35.2407 34.0148 33.4822 34.0148H16.5164C14.7579 34.0148 13.332 32.5889 13.332 30.837V19.1631C13.332 17.4112 14.7579 15.9854 16.5164 15.9854Z" fill="white"/>
<path d="M17.0426 17.5723H32.9579C34.1236 17.5723 35.0786 18.5207 35.0786 19.693V30.3032C35.0786 31.4755 34.1236 32.4239 32.9579 32.4239H17.0426C15.8769 32.4239 14.9219 31.4755 14.9219 30.3032V19.693C14.9219 18.5207 15.8769 17.5723 17.0426 17.5723Z" fill="#81A4FF"/>
<path d="M14.9219 20.4902H35.0786V23.4079H14.9219V20.4902Z" fill="#1D49C2"/>
<path d="M14.6562 30.2212H18.2029C19.9613 30.2212 20.9987 29.2663 22.0063 27.1949C23.0074 25.1236 24.3707 21.7417 26.0897 17.0425H35.6099V32.9578H14.6562V30.2245V30.2212Z" fill="white"/>
</g>
</svg>
