<svg width="40" height="40" viewBox="0 0 40 40" fill="none" xmlns="http://www.w3.org/2000/svg">
<path d="M17.0516 5.8709L2.69747 30.7334C1.38914 33 3.02664 35.8334 5.64331 35.8334H34.3558C36.9725 35.8334 38.61 33 37.3016 30.7334L22.9475 5.8709C21.6391 3.60423 18.3641 3.60423 17.0558 5.8709H17.0516Z" fill="#DDDDDD"/>
<path d="M20.0431 12.8291H20.0389C19.0563 12.8291 18.2598 13.6257 18.2598 14.6083V22.8208C18.2598 23.8034 19.0563 24.5999 20.0389 24.5999H20.0431C21.0257 24.5999 21.8223 23.8034 21.8223 22.8208V14.6083C21.8223 13.6257 21.0257 12.8291 20.0431 12.8291Z" fill="white"/>
<path d="M20.0389 31.1876C21.2194 31.1876 22.1764 30.2306 22.1764 29.05C22.1764 27.8695 21.2194 26.9126 20.0389 26.9126C18.8583 26.9126 17.9014 27.8695 17.9014 29.05C17.9014 30.2306 18.8583 31.1876 20.0389 31.1876Z" fill="white"/>
</svg>
