<svg width="32" height="32" viewBox="0 0 32 32" fill="none" xmlns="http://www.w3.org/2000/svg">
<path d="M17.942 26.2018C17.472 25.7079 16.8216 25.4974 16.1977 25.5605C16.0793 25.5638 15.9548 25.503 15.939 25.3743C15.9228 25.2489 16.0431 25.1389 16.1223 25.0644C16.9662 24.2782 17.0073 22.9604 16.2122 22.1225C15.5257 21.397 14.4445 21.2714 13.619 21.7458C13.2887 21.7753 13.2964 21.4689 13.289 21.4747C13.3923 20.8586 13.2235 20.205 12.7565 19.7147C11.9614 18.8768 10.6315 18.8333 9.78764 19.6196C9.34927 19.7704 9.30973 19.3151 9.30196 19.3242C9.34868 18.7618 9.17464 18.1844 8.75306 17.7394C7.95795 16.9014 6.6281 16.858 5.7842 17.6442L5.70945 17.7092L3.86254 19.3772C3.01864 20.1634 2.97753 21.4812 3.77265 22.3192C4.05567 22.6183 4.42604 22.8305 4.83055 22.9196C5.03428 22.966 5.24174 22.9795 5.44885 22.9662C5.64598 22.9517 5.85836 22.8321 5.98318 23.0399C6.11353 23.2584 5.99319 23.4284 5.94788 23.6504C5.90331 23.8658 5.89498 24.0886 5.92104 24.3052C5.97205 24.7485 6.17064 25.1683 6.47768 25.4936C6.866 25.9048 7.41867 26.1443 7.98746 26.1518C8.2737 26.1541 8.55961 26.0996 8.82118 25.9923C8.93068 25.9479 9.06096 25.839 9.18482 25.8764C9.40333 25.9412 9.38168 26.1625 9.35231 26.3328C9.31626 26.5325 9.32569 26.7473 9.36065 26.9449C9.42537 27.3563 9.61807 27.7387 9.90405 28.0416C10.6992 28.8795 12.029 28.923 12.8729 28.1367C12.9673 28.0472 13.0961 27.9516 13.2043 28.0974C13.3007 28.2285 13.2299 28.4376 13.2268 28.5842C13.2229 28.7674 13.2431 28.9467 13.2836 29.1249C13.3688 29.4752 13.5478 29.7993 13.7946 30.061C14.5898 30.8989 15.9196 30.9424 16.7635 30.1561L16.9856 29.9508L17.8554 29.1442C18.6993 28.3579 18.7404 27.0401 17.9453 26.2022L17.942 26.2018Z" fill="#F8AFA8"/>
<path d="M1.94133 14.2748C1.42145 13.7549 1.41814 12.9154 1.93395 12.3995L11.6155 2.71804C12.1313 2.20223 12.9709 2.20553 13.4907 2.72542L29.2857 18.5204C29.8056 19.0403 29.8089 19.8799 29.2931 20.3957L19.6116 30.0772C19.0958 30.593 18.2562 30.5897 17.7363 30.0698L1.94133 14.2748Z" fill="url(#paint0_linear_1_5656)"/>
<rect x="3" y="11.6665" width="4.66667" height="25" transform="rotate(-45 3 11.6665)" fill="#2570F6"/>
<path d="M22.241 5.6665C21.4102 5.6665 20.6128 5.78966 19.8557 6.01268C19.7117 6.03265 19.571 6.06593 19.4303 6.11919L16.8272 7.06783L12.3782 8.6855C11.2894 9.08159 10.7299 10.2799 11.1286 11.365C11.5272 12.4468 12.7333 13.0026 13.8254 12.6065L13.9628 12.5566L18.3415 10.9655C18.3415 10.9655 20.7737 10.423 22.3616 11.7411L27.0802 16.1072C28.9228 18.0211 29.1322 18.1667 29.3416 18.3332L29.7018 17.9122C30.3149 16.7539 30.6667 15.4358 30.6667 14.0345C30.6667 9.41445 26.8977 5.66984 22.2477 5.66984L22.241 5.6665Z" fill="#F8AFA8"/>
<defs>
<linearGradient id="paint0_linear_1_5656" x1="18.6088" y1="5.97965" x2="7.98407" y2="19.0983" gradientUnits="userSpaceOnUse">
<stop stop-color="#418FFF"/>
<stop offset="1" stop-color="#4EB5FF"/>
</linearGradient>
</defs>
</svg>
