<svg width="50" height="50" viewBox="0 0 50 50" fill="none" xmlns="http://www.w3.org/2000/svg">
<mask id="mask0_81_8427" style="mask-type:alpha" maskUnits="userSpaceOnUse" x="0" y="0" width="50" height="50">
<rect width="50" height="50" rx="12" fill="#C4C4C4"/>
</mask>
<g mask="url(#mask0_81_8427)">
<g clip-path="url(#clip0_81_8427)">
<path d="M50 0H0V50H50V0Z" fill="#00DE5A"/>
<path d="M42.4612 21.8965L40.6397 26.05L38.579 21.8965H36.9933L39.9147 27.6572L38.7076 30.3465H40.2469L44.0004 21.8929H42.4612V21.8965ZM36.1112 28.3179H34.604V27.7179C34.0612 28.1857 33.4112 28.45 32.6219 28.45C30.8183 28.45 29.4076 26.9822 29.4076 25.1072C29.4076 23.2322 30.8183 21.7643 32.6219 21.7643C33.4076 21.7643 34.0612 22.025 34.604 22.4965V21.8965H36.1112V28.3179ZM34.7826 25.1072C34.7826 23.8965 33.9397 22.975 32.8147 22.975C31.6897 22.975 30.8469 23.8929 30.8469 25.1072C30.8469 26.3215 31.6897 27.2393 32.8147 27.2393C33.9397 27.2393 34.7826 26.3215 34.7826 25.1072ZM21.9219 30.3465H23.4933V27.7715C24.0254 28.2072 24.654 28.4465 25.4112 28.4465C27.2147 28.4465 28.6254 26.9786 28.6254 25.1036C28.6254 23.2286 27.2147 21.7607 25.4112 21.7607C24.6254 21.7607 23.9719 22.0215 23.429 22.4929V21.8929H21.9219V30.3465ZM25.2183 22.9786C26.3362 22.9786 27.1862 23.8965 27.1862 25.1107C27.1862 26.325 26.3433 27.2429 25.2183 27.2429C24.0933 27.2429 23.2504 26.325 23.2504 25.1107C23.2504 23.8965 24.0933 22.9786 25.2183 22.9786Z" fill="black"/>
<path d="M19.1032 25.3036C19.1032 28.9214 16.1711 31.8571 12.5497 31.8571C8.92824 31.8571 5.99609 28.925 5.99609 25.3036C5.99609 21.6821 8.92824 18.75 12.5497 18.75C16.1711 18.75 19.1032 21.6821 19.1032 25.3036ZM13.6461 22.225V25.5179L11.3568 22.225H9.46752V28.3821H11.4497V25.0893L13.739 28.3821H15.6282V22.225H13.6461Z" fill="black"/>
</g>
</g>
<defs>
<clipPath id="clip0_81_8427">
<rect width="50" height="50" fill="white"/>
</clipPath>
</defs>
</svg>
