<svg width="91" height="14" viewBox="0 0 91 14" fill="none" xmlns="http://www.w3.org/2000/svg">
<g clip-path="url(#clip0_81_9008)">
<path d="M7.0014 0C3.13546 0 0 3.13546 0 7.0014C0 10.8673 3.13546 14.0028 7.0014 14.0028C10.8673 14.0028 14.0028 10.8673 14.0028 7.0014C14.0028 3.13546 10.8673 0 7.0014 0ZM7.1475 12.7188C6.31025 12.8368 4.94762 12.6233 4.02328 12.0389C3.21413 11.5276 2.73088 10.8898 2.41902 10.2408C2.10155 9.57776 1.94983 8.77423 2.28978 8.81357C2.44993 8.83323 2.5876 9.13385 2.89384 9.52719C3.10456 9.79691 3.29841 10.0217 3.4417 10.0526C3.50632 10.0666 3.5597 10.0357 3.60747 9.94863C3.69456 9.78286 3.81256 9.46538 4.02047 9.20971C4.18904 9.01304 4.39414 8.92314 4.51495 9.40076C4.57114 9.63958 4.6189 9.88401 4.64419 10.0975C4.68071 10.401 4.70038 10.5808 4.80714 10.6313C4.90829 10.6791 5.07967 10.6173 5.35501 10.5133C5.55168 10.4403 5.80734 10.3448 6.12763 10.2549C6.42264 10.1706 6.61088 10.2155 6.41983 10.6735C6.32992 10.8898 6.24002 11.0724 5.91973 11.5332C5.86354 11.6147 5.87477 11.6934 5.94501 11.7636C6.05178 11.8704 6.29621 11.9996 6.56311 12.1148C6.77664 12.2075 7.03231 12.289 7.20088 12.3367C7.46498 12.4126 7.4116 12.6767 7.1475 12.716V12.7188ZM10.7381 11.2129C10.4768 11.6372 9.93177 12.0951 9.26871 12.4014C9.16757 12.4463 9.06081 12.4323 9.03271 12.3508C9.01023 12.2806 9.06643 12.1991 9.13104 12.1204C9.99358 10.9994 9.353 9.97391 7.95946 9.176C6.93117 8.5888 6.27654 8.24885 5.51515 7.80213C3.28999 6.49288 2.86012 5.34939 2.77303 4.6751C2.55388 2.9697 3.96428 1.69135 5.41401 1.3823C5.45896 1.37387 5.57415 1.3542 5.61068 1.44973C5.6472 1.54525 5.56291 1.61549 5.51234 1.6464C4.86334 2.00321 4.22557 2.76179 4.29581 3.60466C4.33514 4.07666 4.53743 4.75095 5.81015 5.66125C6.57716 6.20911 7.52117 6.65864 9.41762 7.79651C11.4236 8.999 11.1961 10.4656 10.7353 11.2129H10.7381ZM11.0528 4.80995C10.5948 5.37186 10.1369 5.16115 9.78567 4.37166C9.56653 3.87999 9.27714 3.76199 9.07204 3.89123C8.85009 4.03171 8.93719 4.36885 9.18724 4.75657C9.35019 5.00943 9.27714 5.31005 9.10857 5.48706C8.93157 5.67249 8.63937 5.74554 8.32189 5.6753C7.75717 5.55168 7.20369 4.79591 7.60827 3.14389C7.77122 2.47803 7.45374 2.19145 7.24864 1.93578C7.1475 1.80654 7.13345 1.73068 7.17279 1.6773C7.21212 1.62111 7.30765 1.6183 7.47341 1.65202C7.68974 1.69697 8.01284 1.80935 8.27413 1.84869C8.44832 1.87678 8.64499 1.8824 8.8529 1.87397C9.41481 1.8515 9.83062 1.93859 10.2549 2.14931C10.9741 2.50612 11.05 3.1186 10.6482 3.07084C10.5105 3.05398 10.3307 2.94722 10.1846 2.87698C10.0863 2.82922 9.9992 2.81236 9.93739 2.86012C9.87839 2.90227 9.8531 2.99217 9.89524 3.08208C9.98515 3.27032 10.2886 3.36865 10.6988 3.48104C11.4152 3.68051 11.4321 4.34357 11.0556 4.80434L11.0528 4.80995Z" fill="#0046FF"/>
<path d="M17.0434 9.4654C17.2036 9.59745 17.3918 9.71826 17.5997 9.82502C17.8104 9.93179 18.0211 10.0217 18.2403 10.0947C18.4566 10.1678 18.673 10.2268 18.8865 10.2661C19.1 10.3055 19.2967 10.3279 19.4821 10.3279C19.9316 10.3279 20.2828 10.2352 20.5357 10.047C20.7885 9.85874 20.915 9.57778 20.915 9.20411C20.915 8.91754 20.8475 8.67311 20.7099 8.47644C20.575 8.27696 20.3222 8.08591 19.9541 7.90329C19.7406 7.79372 19.5383 7.69257 19.3472 7.60548C19.1562 7.51838 18.9736 7.42566 18.7966 7.33014C18.6196 7.23461 18.4482 7.13347 18.2824 7.02671C18.1167 6.91995 17.9537 6.80194 17.7908 6.66709C17.5042 6.40861 17.2682 6.12203 17.0856 5.80174C16.9029 5.48145 16.8102 5.09093 16.8102 4.62735C16.8102 4.30987 16.8748 4.01768 17.0041 3.75077C17.1333 3.48386 17.3188 3.25348 17.5604 3.06243C17.802 2.87138 18.0998 2.72247 18.4482 2.61571C18.7966 2.50895 19.1927 2.45557 19.6338 2.45557C20.5891 2.45557 21.4376 2.61571 22.1821 2.94162V4.29863C22.1821 4.40259 22.1456 4.4644 22.0725 4.49249C21.9995 4.51778 21.9208 4.49811 21.8421 4.43068C21.2381 3.92215 20.5778 3.66929 19.8558 3.66929C19.4596 3.66929 19.1562 3.75358 18.9455 3.92215C18.7348 4.09073 18.6308 4.32673 18.6308 4.62735C18.6308 4.84088 18.6673 5.0235 18.7404 5.17802C18.8134 5.33255 18.923 5.46741 19.0719 5.58541C19.3501 5.81298 19.6507 6.01246 19.971 6.18103C20.2913 6.34961 20.6059 6.50694 20.915 6.65585C21.2016 6.7879 21.4572 6.93118 21.682 7.08571C21.9068 7.24023 22.0978 7.41724 22.2551 7.6139C22.4125 7.81057 22.5333 8.03815 22.6148 8.29101C22.6962 8.54387 22.7356 8.84168 22.7356 9.17882C22.7356 9.59745 22.6541 9.95707 22.4883 10.2549C22.3226 10.5527 22.0922 10.7999 21.8 10.9938C21.505 11.1877 21.1622 11.3309 20.7689 11.418C20.3755 11.5051 19.9541 11.5501 19.5074 11.5501C19.1759 11.5501 18.8331 11.5136 18.4763 11.4405C18.1195 11.3675 17.802 11.2719 17.521 11.1596C17.2401 11.0444 17.0209 10.9179 16.858 10.7803C16.695 10.6426 16.6445 10.4993 16.7035 10.3616L17.0462 9.46821L17.0434 9.4654Z" fill="#0046FF"/>
<path d="M23.7163 2.56775H25.6015V5.64421C25.8375 5.44754 26.0988 5.29021 26.3854 5.17502C26.6719 5.05982 26.9922 5.00363 27.3434 5.00363C27.6946 5.00363 28.0037 5.05139 28.2874 5.14692C28.5712 5.24244 28.8128 5.3773 29.0151 5.54869C29.2174 5.72288 29.3747 5.92798 29.4843 6.17241C29.5939 6.41684 29.6501 6.68374 29.6501 6.97875V11.4122H27.9194V7.20913C27.9194 6.59946 27.585 6.29322 26.9164 6.29322C26.6888 6.29322 26.4668 6.33817 26.2533 6.42808C26.0398 6.51798 25.8235 6.6416 25.6015 6.80175V11.4122H23.8708V3.6691C23.8708 3.47805 23.8511 3.32633 23.8146 3.21676C23.7781 3.10718 23.7051 2.99199 23.5955 2.87399C23.528 2.79251 23.514 2.72228 23.5449 2.65766C23.5786 2.59585 23.6348 2.56494 23.7163 2.56494V2.56775Z" fill="#0046FF"/>
<path d="M32.9033 5.21496V11.4128H31.1726V6.30507C31.1726 6.12807 31.1529 5.98478 31.1108 5.87521C31.0715 5.76564 30.9984 5.65045 30.8945 5.53244C30.827 5.45097 30.8102 5.37792 30.8411 5.3133C30.8692 5.24587 30.9254 5.21496 31.0068 5.21496H32.9033ZM32.9679 3.25109C32.9679 3.55171 32.8696 3.80176 32.6757 4.00124C32.4819 4.19791 32.229 4.29905 31.9199 4.29905C31.6109 4.29905 31.358 4.20072 31.1642 4.00124C30.9703 3.80176 30.872 3.55171 30.872 3.25109C30.872 2.95047 30.9703 2.70042 31.1642 2.50094C31.358 2.30146 31.6109 2.20312 31.9199 2.20312C32.229 2.20312 32.479 2.30146 32.6757 2.50094C32.8696 2.70042 32.9679 2.95047 32.9679 3.25109Z" fill="#0046FF"/>
<path d="M34.3124 5.21462H36.1555V5.82149C36.3831 5.59953 36.6387 5.40848 36.9225 5.24834C37.2063 5.08538 37.5406 5.00391 37.9311 5.00391C38.2627 5.00391 38.5661 5.04886 38.847 5.14157C39.1252 5.23429 39.3696 5.36634 39.5803 5.54334C39.7911 5.72034 39.954 5.93949 40.072 6.20078C40.19 6.46206 40.249 6.75988 40.249 7.09983V11.4125H38.5183V7.25436C38.5183 6.90035 38.4397 6.64468 38.2795 6.48735C38.1194 6.33002 37.8665 6.25135 37.5125 6.25135C37.2709 6.25135 37.0405 6.29911 36.8298 6.39463C36.6163 6.49016 36.4112 6.62502 36.2117 6.80202V11.4125H34.481V6.32721C34.481 6.13616 34.4613 5.98444 34.4192 5.87487C34.3799 5.7653 34.3068 5.6501 34.2028 5.5321C34.1298 5.45063 34.1101 5.37758 34.141 5.31296C34.1748 5.24553 34.2309 5.21462 34.3124 5.21462Z" fill="#0046FF"/>
<path d="M41.5581 2.56775H43.4433V5.64421C43.6793 5.44754 43.9378 5.29021 44.2272 5.17502C44.5137 5.05982 44.834 5.00363 45.1852 5.00363C45.5364 5.00363 45.8455 5.05139 46.1292 5.14692C46.413 5.24244 46.6546 5.3773 46.8569 5.54869C47.0592 5.72288 47.2165 5.92798 47.3261 6.17241C47.4357 6.41684 47.4919 6.68374 47.4919 6.97875V11.4122H45.7612V7.20913C45.7612 6.59946 45.4268 6.29322 44.7582 6.29322C44.5306 6.29322 44.3086 6.33817 44.0951 6.42808C43.8816 6.51798 43.6653 6.6416 43.4433 6.80175V11.4122H41.7126V3.6691C41.7126 3.47805 41.6958 3.32633 41.6564 3.21676C41.6199 3.10718 41.5468 2.99199 41.4373 2.87399C41.3698 2.79251 41.3558 2.72228 41.3867 2.65766C41.4204 2.59585 41.4766 2.56494 41.5581 2.56494V2.56775Z" fill="#0046FF"/>
<path d="M51.4198 6.16425C51.0827 6.16425 50.7484 6.22887 50.4168 6.35811C50.0853 6.48735 49.7959 6.63345 49.5459 6.79359C49.4223 6.87507 49.3267 6.89754 49.2593 6.86102C49.1919 6.8245 49.161 6.74302 49.161 6.61659V5.46467C49.4925 5.31858 49.8746 5.20619 50.3129 5.12472C50.7512 5.04605 51.1557 5.00391 51.5322 5.00391C52.3919 5.00391 53.055 5.16967 53.5214 5.5012C53.9878 5.83272 54.221 6.34406 54.221 7.03521V11.4125H52.5212V10.741C52.2796 11.0416 51.9902 11.2636 51.6615 11.4041C51.3299 11.5445 50.9787 11.6148 50.6023 11.6148C50.2932 11.6148 50.0094 11.567 49.7538 11.4715C49.4953 11.376 49.2762 11.2411 49.0963 11.0697C48.9165 10.8983 48.7732 10.6904 48.6721 10.4516C48.5682 10.2128 48.5176 9.94591 48.5176 9.65091C48.5176 8.98785 48.7508 8.46527 49.2172 8.07756C49.6835 7.69265 50.4028 7.49879 51.3749 7.49879H52.4875V7.0324C52.4875 6.72054 52.3948 6.49859 52.2121 6.36654C52.0295 6.23168 51.7626 6.16706 51.417 6.16706L51.4198 6.16425ZM52.4903 8.65632H51.3665C50.9394 8.65632 50.636 8.74342 50.4562 8.92042C50.2764 9.09742 50.1865 9.33062 50.1865 9.62281C50.1865 9.86443 50.2539 10.0611 50.3915 10.21C50.5264 10.3589 50.7231 10.4348 50.9816 10.4348C51.2822 10.4348 51.5631 10.3702 51.8188 10.2409C52.0773 10.1117 52.2992 9.93748 52.4903 9.71834V8.65913V8.65632Z" fill="#0046FF"/>
<path d="M55.503 5.21462H57.346V5.82149C57.5736 5.59953 57.8293 5.40848 58.113 5.24834C58.3968 5.08538 58.7311 5.00391 59.1217 5.00391C59.4532 5.00391 59.7566 5.04886 60.0376 5.14157C60.3157 5.23429 60.5602 5.36634 60.7709 5.54334C60.9816 5.72034 61.1446 5.93949 61.2626 6.20078C61.3806 6.46206 61.4396 6.75988 61.4396 7.09983V11.4125H59.7089V7.25436C59.7089 6.90035 59.6302 6.64468 59.4729 6.48735C59.3155 6.33002 59.0599 6.25135 58.7059 6.25135C58.4642 6.25135 58.2339 6.29911 58.0231 6.39463C57.8096 6.49016 57.6045 6.62502 57.405 6.80202V11.4125H55.6744V6.32721C55.6744 6.13616 55.6547 5.98444 55.6125 5.87487C55.5732 5.7653 55.5002 5.6501 55.3962 5.5321C55.3232 5.45063 55.3035 5.37758 55.3344 5.31296C55.3681 5.24553 55.4243 5.21462 55.5058 5.21462H55.503Z" fill="#0046FF"/>
<path d="M68.9838 3.84695C68.5708 3.84695 68.2112 3.92562 67.9021 4.08296C67.5931 4.24029 67.3346 4.46225 67.1295 4.74882C66.9244 5.03539 66.7699 5.37816 66.6715 5.77431C66.5732 6.17045 66.5226 6.61155 66.5226 7.09761C66.5226 8.16243 66.7446 8.9772 67.1885 9.53349C67.6324 10.0926 68.2533 10.3707 69.0456 10.3707C69.4502 10.3707 69.8463 10.3089 70.2368 10.1881C70.6274 10.0673 71.0319 9.85097 71.4506 9.54192L71.858 10.3792C71.9029 10.4663 71.8636 10.5843 71.7484 10.7332C71.6304 10.8793 71.445 11.0226 71.1865 11.1574C70.928 11.2951 70.6077 11.4103 70.2256 11.5114C69.8435 11.6097 69.4136 11.6603 68.936 11.6603C68.2505 11.6603 67.6464 11.5507 67.1211 11.3344C66.5957 11.1181 66.1546 10.8118 65.7978 10.4129C65.4409 10.0167 65.1684 9.5363 64.9802 8.97439C64.7919 8.41248 64.6992 7.78595 64.6992 7.0948C64.6992 6.40365 64.7919 5.79959 64.9746 5.2433C65.1572 4.6842 65.4269 4.20658 65.7809 3.81043C66.1349 3.41428 66.5676 3.10523 67.0817 2.8889C67.5959 2.67256 68.1859 2.56299 68.8461 2.56299C69.9109 2.56299 70.8381 2.75685 71.6248 3.14738V4.50439C71.6248 4.61396 71.5882 4.6842 71.5208 4.71511C71.4506 4.74601 71.3691 4.72634 71.2736 4.65891C70.9364 4.40886 70.588 4.20939 70.2312 4.06329C69.8744 3.91719 69.4558 3.84133 68.9782 3.84133L68.9838 3.84695Z" fill="#0046FF"/>
<path d="M75.5878 6.16425C75.2507 6.16425 74.9163 6.22887 74.5848 6.35811C74.2533 6.48735 73.9639 6.63064 73.7138 6.79359C73.5902 6.87507 73.4947 6.89754 73.4273 6.86102C73.3598 6.8245 73.3289 6.74302 73.3289 6.61659V5.46467C73.6605 5.31858 74.0426 5.20619 74.4809 5.12472C74.9191 5.04605 75.3237 5.00391 75.7002 5.00391C76.5599 5.00391 77.223 5.16967 77.6894 5.5012C78.1557 5.83272 78.3889 6.34406 78.3889 7.03521V11.4125H76.6892V10.741C76.4475 11.0416 76.161 11.2636 75.8294 11.4041C75.4979 11.5445 75.1467 11.6148 74.7702 11.6148C74.4612 11.6148 74.1774 11.567 73.9217 11.4715C73.6633 11.376 73.4441 11.2411 73.2643 11.0697C73.0845 10.8983 72.9412 10.6904 72.8401 10.4516C72.7361 10.2128 72.6855 9.94591 72.6855 9.65091C72.6855 8.98785 72.9187 8.46527 73.3851 8.07756C73.8515 7.69265 74.5708 7.49879 75.5429 7.49879H76.6554V7.0324C76.6554 6.72054 76.5627 6.49859 76.3801 6.36654C76.1975 6.23168 75.9306 6.16706 75.585 6.16706L75.5878 6.16425ZM76.6583 8.65632H75.5344C75.1074 8.65632 74.8039 8.74342 74.6241 8.92042C74.4443 9.09742 74.3544 9.33062 74.3544 9.62281C74.3544 9.86443 74.4219 10.0611 74.5595 10.21C74.6944 10.3589 74.8911 10.4348 75.1495 10.4348C75.4502 10.4348 75.7311 10.3702 75.9868 10.2409C76.2452 10.1117 76.4672 9.93748 76.6583 9.71834V8.65913V8.65632Z" fill="#0046FF"/>
<path d="M83.1115 5.00391C83.2942 5.00391 83.4712 5.02357 83.6426 5.0601V6.2963C83.6426 6.4143 83.6173 6.47892 83.5695 6.49578C83.5217 6.50983 83.4571 6.50421 83.3756 6.4733C83.2661 6.43678 83.1396 6.40587 82.9964 6.38059C82.8531 6.3553 82.7014 6.34125 82.5384 6.34125C82.4288 6.34125 82.3277 6.36373 82.235 6.40868C82.1423 6.45364 82.0552 6.50702 81.9709 6.56883C81.8866 6.63064 81.8107 6.70088 81.7461 6.77392C81.6787 6.84697 81.6197 6.9144 81.5691 6.9734V11.4181H79.8384V6.31035C79.8384 6.13335 79.8188 5.99006 79.7766 5.88049C79.7373 5.77091 79.6642 5.65572 79.5603 5.53772C79.4872 5.45624 79.4676 5.3832 79.4985 5.31858C79.5322 5.25115 79.5884 5.22024 79.6698 5.22024H81.5213V6.21201C81.5944 6.05749 81.6815 5.90858 81.7798 5.75968C81.8782 5.61358 81.9962 5.48434 82.1282 5.37477C82.2603 5.26519 82.4092 5.17529 82.5749 5.11067C82.7407 5.04324 82.9177 5.01234 83.1087 5.01234L83.1115 5.00391Z" fill="#0046FF"/>
<path d="M90.3753 2.57861V11.4118H88.6784V10.7713C88.4648 11.0494 88.2007 11.2601 87.8832 11.4006C87.5658 11.5411 87.2427 11.6113 86.914 11.6113C86.4953 11.6113 86.1076 11.5298 85.7564 11.3697C85.4024 11.2096 85.1018 10.982 84.8517 10.6926C84.6017 10.4032 84.4078 10.0548 84.2674 9.65026C84.1269 9.24568 84.0566 8.80458 84.0566 8.32696C84.0566 7.80438 84.1297 7.33799 84.2786 6.9278C84.4247 6.5148 84.6326 6.16922 84.8967 5.88546C85.1608 5.60169 85.4839 5.38536 85.8604 5.23364C86.2397 5.08192 86.6611 5.00607 87.1219 5.00607C87.4309 5.00607 87.7175 5.04821 87.9816 5.1325C88.2457 5.21678 88.4676 5.31793 88.6446 5.43593V3.68277C88.6446 3.50015 88.625 3.35124 88.5828 3.24167C88.5435 3.13209 88.4704 3.01409 88.3665 2.88766C88.2934 2.80619 88.271 2.73595 88.3047 2.67133C88.3384 2.60952 88.3946 2.57861 88.4761 2.57861H90.3725H90.3753ZM87.3972 6.21698C86.324 6.21698 85.7873 6.91937 85.7873 8.32415C85.7873 8.69782 85.8267 9.01811 85.9081 9.27939C85.9896 9.54068 86.0964 9.75421 86.234 9.91997C86.3689 10.0857 86.529 10.2065 86.7089 10.2852C86.8887 10.3611 87.0741 10.4004 87.2652 10.4004C87.5433 10.4004 87.8046 10.333 88.0434 10.1953C88.2822 10.0605 88.4817 9.88907 88.6446 9.68397V6.66089C88.4985 6.55132 88.3131 6.45018 88.094 6.35746C87.8748 6.26475 87.6416 6.21979 87.4 6.21979L87.3972 6.21698Z" fill="#0046FF"/>
</g>
<defs>
<clipPath id="clip0_81_9008">
<rect width="90.3749" height="14" fill="white"/>
</clipPath>
</defs>
</svg>
