<svg width="22" height="22" viewBox="0 0 22 22" fill="none" xmlns="http://www.w3.org/2000/svg">
<path d="M10.9987 1.8335C5.93739 1.8335 1.83203 5.93885 1.83203 11.0002C1.83203 16.0615 5.93739 20.1668 10.9987 20.1668C16.06 20.1668 20.1654 16.0615 20.1654 11.0002C20.1654 5.93885 16.06 1.8335 10.9987 1.8335Z" fill="#309C54"/>
<path fill-rule="evenodd" clip-rule="evenodd" d="M15.2874 7.57444C15.6606 7.91654 15.6858 8.49639 15.3437 8.86958L10.6563 13.9831C10.0938 14.5967 9.11938 14.5737 8.58646 13.9342L6.63046 11.587C6.30636 11.1981 6.3589 10.6201 6.74782 10.296C7.13674 9.97186 7.71476 10.0244 8.03886 10.4133L9.6592 12.3577L13.9923 7.63075C14.3344 7.25756 14.9142 7.23235 15.2874 7.57444Z" fill="#E6F4EA"/>
</svg>
