<svg width="15" height="15" viewBox="0 0 15 15" fill="none" xmlns="http://www.w3.org/2000/svg">
<path d="M3.56694 2.68306C3.32286 2.43898 2.92714 2.43898 2.68306 2.68306C2.43898 2.92714 2.43898 3.32286 2.68306 3.56694L6.61612 7.5L2.68306 11.4331C2.43898 11.6771 2.43898 12.0729 2.68306 12.3169C2.92714 12.561 3.32286 12.561 3.56694 12.3169L7.5 8.38388L11.4331 12.3169C11.6771 12.561 12.0729 12.561 12.3169 12.3169C12.561 12.0729 12.561 11.6771 12.3169 11.4331L8.38388 7.5L12.3169 3.56694C12.561 3.32286 12.561 2.92714 12.3169 2.68306C12.0729 2.43898 11.6771 2.43898 11.4331 2.68306L7.5 6.61612L3.56694 2.68306Z" fill="white"/>
</svg>
