<svg width="24" height="24" viewBox="0 0 24 24" fill="none" xmlns="http://www.w3.org/2000/svg">
<path d="M11.9987 2.8335C6.93739 2.8335 2.83203 6.93885 2.83203 12.0002C2.83203 17.0615 6.93739 21.1668 11.9987 21.1668C17.06 21.1668 21.1654 17.0615 21.1654 12.0002C21.1654 6.93885 17.06 2.8335 11.9987 2.8335Z" fill="white"/>
<path d="M13.1471 7.87484V9.36668C13.1471 10.6489 12.8726 11.9163 12.342 13.0836C12.2091 13.3761 11.7936 13.3761 11.6606 13.0836C11.13 11.9163 10.8555 10.6489 10.8555 9.36668V7.87484C10.8555 7.24201 11.3685 6.729 12.0013 6.729C12.6341 6.729 13.1471 7.24201 13.1471 7.87484Z" fill="#222222"/>
<path d="M12.0013 17.0415C12.6341 17.0415 13.1471 16.5285 13.1471 15.8957C13.1471 15.2628 12.6341 14.7498 12.0013 14.7498C11.3685 14.7498 10.8555 15.2628 10.8555 15.8957C10.8555 16.5285 11.3685 17.0415 12.0013 17.0415Z" fill="#222222"/>
</svg>
